<svg xmlns="http://www.w3.org/2000/svg" viewBox="0 0 256 154" width="256" height="154" aria-hidden="true" focusable="false"><rect width="256" height="154" fill="none"/><g fill="#FF9900"><path d="M37 130c38 18 83 28 131 24 39-3 64-13 72-20 5-4 7-9 6-12-1-3-4-4-7-3-6 3-35 17-71 22-45 7-96 2-141-16-3-1-6 0-7 2-2 3 0 7 4 9z"/></g><g fill="#fff"><circle cx="64" cy="52" r="10" opacity=".75"/><circle cx="104" cy="52" r="10" opacity=".9"/><circle cx="144" cy="52" r="10" opacity=".75"/><rect x="60" y="70" width="92" height="14" rx="7" opacity=".85"/></g></svg>
